#!OML:ASF C:\ViconDB\ViconDB\414\Spring2016\041811\Spring2016.ASF
:FULLY-SPECIFIED
:DEGREES
348
root 7.06153 17.8953 -35.6186 -180.013 7.92494 -191.467
lowerback -4.7958 -0.577385 -5.21441
upperback -1.07206 -0.364148 -1.75757
thorax 1.61034 -0.151034 1.09335
lowerneck -10.1504 8.1829 3.88445
upperneck 41.0283 17.44 3.24088
head 16.4809 10.1415 4.11025
rclavicle -2.31584e-014 -2.78299e-014
rhumerus -83.7717 33.0808 -118.567
rradius 86.6108
rwrist 28.2012
rhand -43.2403 -0.788039
rfingers 7.12502
rthumb -16.0897 -30.1401
lclavicle -2.31584e-014 -2.78299e-014
lhumerus -100.875 -46.8869 133.718
lradius 79.7391
lwrist -12.6559
lhand -41.2511 -1.41619
lfingers 7.12502
lthumb -14.1736 28.0803
rfemur 180.7 384.836 -529.926
rtibia 42.4004
rfoot -736.065 -69.9236
rtoes -17.9712
lfemur -6.71578 2.11856 -37.8193
ltibia 25.7856
lfoot -20.426 -16.5263
ltoes -6.56634
349
root 7.04085 17.8494 -35.8243 -179.807 8.20805 -192.064
lowerback -5.16625 -0.637831 -5.40232
upperback -1.17598 -0.396062 -1.86704
thorax 1.7132 -0.161795 1.08152
lowerneck -10.1067 8.32182 4.03263
upperneck 41.0894 17.7678 2.98341
head 16.562 10.2598 4.04483
rclavicle 1.96797e-014 2.06736e-014
rhumerus -83.4696 32.5989 -118.267
rradius 86.58
rwrist 28.4823
rhand -43.2221 -0.72459
rfingers 7.12502
rthumb -16.0722 -30.078
lclavicle 1.96797e-014 2.06736e-014
lhumerus -101.431 -47.0559 134.21
lradius 79.4993
lwrist -13.8483
lhand -42.0096 -0.332766
lfingers 7.12502
lthumb -14.9044 29.111
rfemur 184.792 386.468 -527.973
rtibia 40.0331
rfoot -741.965 -68.9786
rtoes -15.9139
lfemur -6.24891 2.7944 -38.5673
ltibia 25.5484
lfoot -20.6049 -17.2618
ltoes -5.91909
350
root 7.0239 17.8152 -36.0304 -179.59 8.46808 -192.28
lowerback -5.54926 -0.652003 -5.30189
upperback -1.23833 -0.392851 -1.83979
thorax 1.86237 -0.160713 1.05147
lowerneck -10.0458 8.42901 4.06562
upperneck 41.0946 18.0367 2.76491
head 16.59 10.345 3.99269
rclavicle 1.88845e-014 -1.66979e-014
rhumerus -83.157 32.1014 -117.874
rradius 86.607
rwrist 28.5525
rhand -43.1336 -0.803579
rfingers 7.12502
rthumb -15.9871 -30.1639
lclavicle 1.88845e-014 -1.66979e-014
lhumerus -101.857 -47.2868 134.684
lradius 79.3638
lwrist -14.2539
lhand -42.2693 -0.0204383
lfingers 7.12502
lthumb -15.1545 29.4047
rfemur 188.779 388.262 -525.294
rtibia 37.811
rfoot -748.697 -67.7355
rtoes -14.2256
lfemur -5.77448 3.28122 -38.8527
ltibia 25.3915
lfoot -20.9042 -18.0483
ltoes -5.75685
351
root 7.00833 17.7799 -36.236 -179.417 8.70411 -192.348
lowerback -5.74004 -0.67386 -5.09098
upperback -1.38375 -0.426394 -1.77642
thorax 1.81965 -0.172614 0.996014
lowerneck -9.77266 8.51865 4.30053
upperneck 41.0803 18.3382 2.39562
head 16.6084 10.4706 3.83851
rclavicle -4.10987e-014 -2.22639e-014
rhumerus -83.0166 31.5201 -117.55
rradius 86.657
rwrist 28.7043
rhand -43.1274 -0.365705
rfingers 7.12502
rthumb -15.981 -29.7265
lclavicle -4.10987e-014 -2.22639e-014
lhumerus -102.228 -47.311 134.993
lradius 79.4003
lwrist -14.1934
lhand -42.2773 0.286163
lfingers 7.12502
lthumb -15.1623 29.7107
rfemur 192.628 390.333 -522.078
rtibia 35.8209
rfoot -755.114 -67.0035
rtoes -11.6707
lfemur -5.13938 4.01311 -39.0305
ltibia 25.1595
lfoot -21.1538 -18.55
ltoes -5.81978
352
root 6.99574 17.7266 -36.4465 -179.305 8.91344 -192.581
lowerback -5.97811 -0.721607 -5.08114
upperback -1.4258 -0.473648 -1.75231
thorax 1.91194 -0.196227 1.01023
lowerneck -9.67296 8.63151 4.49309
upperneck 41.0765 18.6407 2.05335
head 16.6666 10.5769 3.7188
rclavicle 9.59136e-015 8.74653e-015
rhumerus -82.8254 31.1687 -117.257
rradius 86.7354
rwrist 28.6849
rhand -43.1286 -0.52688
rfingers 7.12502
rthumb -15.9822 -29.8876
lclavicle 9.59136e-015 8.74653e-015
lhumerus -102.461 -47.4448 135.346
lradius 79.3499
lwrist -13.9191
lhand -42.1891 0.143489
lfingers 7.12502
lthumb -15.0773 29.5744
rfemur 196.291 392.557 -518.765
rtibia 34.1368
rfoot -761.501 -66.292
rtoes -9.24493
lfemur -4.45282 4.58119 -39.3542
ltibia 24.8759
lfoot -21.3561 -19.1373
ltoes -5.50313
353
root 6.98612 17.6781 -36.6581 -179.282 9.13475 -193.048
lowerback -6.14232 -0.741366 -5.40738
upperback -1.48158 -0.46361 -1.73872
thorax 1.94825 -0.189392 1.20615
lowerneck -9.52635 8.71363 4.58056
upperneck 41.0336 18.9035 1.74004
head 16.6759 10.6635 3.60988
rclavicle -6.4605e-015 3.57812e-014
rhumerus -82.5366 30.669 -116.645
rradius 86.785
rwrist 29.0632
rhand -42.7223 -0.450576
rfingers 7.12502
rthumb -15.5909 -29.8422
lclavicle -6.4605e-015 3.57812e-014
lhumerus -102.588 -47.4618 135.731
lradius 79.2314
lwrist -13.6927
lhand -41.947 -0.0189875
lfingers 7.12502
lthumb -14.8441 29.4293
rfemur 199.768 394.786 -515.474
rtibia 32.7869
rfoot -768.228 -66.2119
rtoes -5.74751
lfemur -3.61644 4.67971 -39.9731
ltibia 24.4452
lfoot -21.578 -19.3106
ltoes -5.18055
354
root 6.97914 17.6322 -36.873 -179.253 9.18001 -193.326
lowerback -6.32187 -0.843339 -5.56939
upperback -1.50632 -0.573893 -1.71248
thorax 2.03146 -0.244949 1.31342
lowerneck -9.41389 8.82593 4.75379
upperneck 41.0203 19.1762 1.4701
head 16.7156 10.7664 3.51488
rclavicle -2.29099e-014 7.95139e-016
rhumerus -82.3562 30.3493 -116.283
rradius 86.8671
rwrist 29.158
rhand -42.6144 -0.225787
rfingers 7.12502
rthumb -15.487 -29.6255
lclavicle -2.29099e-014 7.95139e-016
lhumerus -102.688 -47.4686 135.969
lradius 79.1821
lwrist -13.5847
lhand -41.9028 0.0959924
lfingers 7.12502
lthumb -14.8016 29.5474
rfemur 202.872 396.926 -512.124
rtibia 31.751
rfoot -774.78 -65.916
rtoes -2.77982
lfemur -2.62687 4.56145 -40.4042
ltibia 23.9247
lfoot -21.8274 -19.3791
ltoes -4.97411
